<svg width="248" height="172" viewBox="0 0 248 172" fill="none" xmlns="http://www.w3.org/2000/svg">
<path d="M58.8516 88L11.8516 88C8.53785 88 5.85156 85.3137 5.85156 82L5.85156 31C5.85156 27.6863 8.53785 25 11.8516 25L58.8516 25" stroke="url(#paint0_linear_2213_93451)" stroke-width="10"/>
<path d="M50.2051 88.3536C50.4004 88.1583 50.4004 87.8417 50.2051 87.6464L47.0231 84.4645C46.8279 84.2692 46.5113 84.2692 46.316 84.4645C46.1208 84.6597 46.1208 84.9763 46.316 85.1716L49.1445 88L46.316 90.8284C46.1208 91.0237 46.1208 91.3403 46.316 91.5355C46.5113 91.7308 46.8279 91.7308 47.0231 91.5355L50.2051 88.3536ZM5.85156 82L5.35156 82L5.85156 82ZM11.8516 88L11.8516 88.5L11.8516 88ZM5.85156 31L6.35156 31L5.85156 31ZM49.8516 24.5L47.9516 24.5L47.9516 25.5L49.8516 25.5L49.8516 24.5ZM44.1516 24.5L40.3516 24.5L40.3516 25.5L44.1516 25.5L44.1516 24.5ZM36.5516 24.5L32.7516 24.5L32.7516 25.5L36.5516 25.5L36.5516 24.5ZM28.9516 24.5L25.1516 24.5L25.1516 25.5L28.9516 25.5L28.9516 24.5ZM21.3516 24.5L17.5516 24.5L17.5516 25.5L21.3516 25.5L21.3516 24.5ZM13.7516 24.5L11.8516 24.5L11.8516 25.5L13.7516 25.5L13.7516 24.5ZM11.8516 24.5C10.9711 24.5 10.1304 24.6753 9.3633 24.9934L9.74636 25.9171C10.3942 25.6485 11.1049 25.5 11.8516 25.5L11.8516 24.5ZM5.84498 28.5117C5.52688 29.2788 5.35156 30.1196 5.35156 31L6.35156 31C6.35156 30.2533 6.50007 29.5426 6.7687 28.8948L5.84498 28.5117ZM5.35156 31L5.35156 33.125L6.35156 33.125L6.35156 31L5.35156 31ZM5.35156 37.375L5.35156 41.625L6.35156 41.625L6.35156 37.375L5.35156 37.375ZM5.35156 45.875L5.35156 50.125L6.35156 50.125L6.35156 45.875L5.35156 45.875ZM5.35156 54.375L5.35156 58.625L6.35156 58.625L6.35156 54.375L5.35156 54.375ZM5.35156 62.875L5.35156 67.125L6.35156 67.125L6.35156 62.875L5.35156 62.875ZM5.35156 71.375L5.35156 75.625L6.35156 75.625L6.35156 71.375L5.35156 71.375ZM5.35156 79.875L5.35156 82L6.35156 82L6.35156 79.875L5.35156 79.875ZM5.35156 82C5.35156 82.8804 5.52688 83.7212 5.84498 84.4883L6.7687 84.1052C6.50007 83.4574 6.35156 82.7467 6.35156 82L5.35156 82ZM9.36331 88.0066C10.1304 88.3247 10.9711 88.5 11.8516 88.5L11.8516 87.5C11.1049 87.5 10.3942 87.3515 9.74636 87.0829L9.36331 88.0066ZM11.8516 88.5L13.7516 88.5L13.7516 87.5L11.8516 87.5L11.8516 88.5ZM17.5516 88.5L21.3516 88.5L21.3516 87.5L17.5516 87.5L17.5516 88.5ZM25.1516 88.5L28.9516 88.5L28.9516 87.5L25.1516 87.5L25.1516 88.5ZM32.7516 88.5L36.5516 88.5L36.5516 87.5L32.7516 87.5L32.7516 88.5ZM40.3516 88.5L44.1516 88.5L44.1516 87.5L40.3516 87.5L40.3516 88.5ZM47.9516 88.5L49.8516 88.5L49.8516 87.5L47.9516 87.5L47.9516 88.5Z" fill="#7E84C5"/>
<path d="M195.852 147L236.852 147C240.165 147 242.852 144.314 242.852 141L242.852 92C242.852 88.6863 240.165 86 236.852 86L195.852 86" stroke="url(#paint1_linear_2213_93451)" stroke-width="10"/>
<path d="M197.498 147.354C197.303 147.158 197.303 146.842 197.498 146.646L200.68 143.464C200.875 143.269 201.192 143.269 201.387 143.464C201.582 143.66 201.582 143.976 201.387 144.172L198.559 147L201.387 149.828C201.582 150.024 201.582 150.34 201.387 150.536C201.192 150.731 200.875 150.731 200.68 150.536L197.498 147.354ZM242.852 141L243.352 141L242.852 141ZM236.852 147L236.852 146.5L236.852 147ZM242.852 92L242.352 92L242.852 92ZM197.852 85.5L199.802 85.5L199.802 86.5L197.852 86.5L197.852 85.5ZM203.702 85.5L207.602 85.5L207.602 86.5L203.702 86.5L203.702 85.5ZM211.502 85.5L215.402 85.5L215.402 86.5L211.502 86.5L211.502 85.5ZM219.302 85.5L223.202 85.5L223.202 86.5L219.302 86.5L219.302 85.5ZM227.102 85.5L231.002 85.5L231.002 86.5L227.102 86.5L227.102 85.5ZM234.902 85.5L236.852 85.5L236.852 86.5L234.902 86.5L234.902 85.5ZM236.852 85.5C237.732 85.5 238.573 85.6753 239.34 85.9934L238.957 86.9172C238.309 86.6485 237.598 86.5 236.852 86.5L236.852 85.5ZM242.858 89.5118C243.176 90.2788 243.352 91.1196 243.352 92L242.352 92C242.352 91.2533 242.203 90.5426 241.934 89.8948L242.858 89.5118ZM243.352 92L243.352 94.0417L242.352 94.0417L242.352 92L243.352 92ZM243.352 98.125L243.352 102.208L242.352 102.208L242.352 98.125L243.352 98.125ZM243.352 106.292L243.352 110.375L242.352 110.375L242.352 106.292L243.352 106.292ZM243.352 114.458L243.352 118.542L242.352 118.542L242.352 114.458L243.352 114.458ZM243.352 122.625L243.352 126.708L242.352 126.708L242.352 122.625L243.352 122.625ZM243.352 130.792L243.352 134.875L242.352 134.875L242.352 130.792L243.352 130.792ZM243.352 138.958L243.352 141L242.352 141L242.352 138.958L243.352 138.958ZM243.352 141C243.352 141.88 243.176 142.721 242.858 143.488L241.934 143.105C242.203 142.457 242.352 141.747 242.352 141L243.352 141ZM239.34 147.007C238.573 147.325 237.732 147.5 236.852 147.5L236.852 146.5C237.598 146.5 238.309 146.351 238.957 146.083L239.34 147.007ZM236.852 147.5L234.902 147.5L234.902 146.5L236.852 146.5L236.852 147.5ZM231.002 147.5L227.102 147.5L227.102 146.5L231.002 146.5L231.002 147.5ZM223.202 147.5L219.302 147.5L219.302 146.5L223.202 146.5L223.202 147.5ZM215.402 147.5L211.502 147.5L211.502 146.5L215.402 146.5L215.402 147.5ZM207.602 147.5L203.702 147.5L203.702 146.5L207.602 146.5L207.602 147.5ZM199.802 147.5L197.852 147.5L197.852 146.5L199.802 146.5L199.802 147.5Z" fill="#7E84C5"/>
<path d="M196.852 25L242.852 25" stroke="url(#paint2_linear_2213_93451)" stroke-width="10"/>
<path d="M197.498 25.3536C197.303 25.1583 197.303 24.8417 197.498 24.6465L200.68 21.4645C200.875 21.2692 201.192 21.2692 201.387 21.4645C201.582 21.6597 201.582 21.9763 201.387 22.1716L198.559 25L201.387 27.8284C201.582 28.0237 201.582 28.3403 201.387 28.5355C201.192 28.7308 200.875 28.7308 200.68 28.5355L197.498 25.3536ZM242.852 25.5L240.977 25.5L240.977 24.5L242.852 24.5L242.852 25.5ZM237.227 25.5L233.477 25.5L233.477 24.5L237.227 24.5L237.227 25.5ZM229.727 25.5L225.977 25.5L225.977 24.5L229.727 24.5L229.727 25.5ZM222.227 25.5L218.477 25.5L218.477 24.5L222.227 24.5L222.227 25.5ZM214.727 25.5L210.977 25.5L210.977 24.5L214.727 24.5L214.727 25.5ZM207.227 25.5L203.477 25.5L203.477 24.5L207.227 24.5L207.227 25.5ZM199.727 25.5L197.852 25.5L197.852 24.5L199.727 24.5L199.727 25.5Z" fill="#7E84C5"/>
<path d="M43.1584 135.922C43.7883 135.166 43.6862 134.043 42.9303 133.413C42.1744 132.783 41.0509 132.885 40.421 133.641L27.6155 149.008C25.0432 152.095 23.2337 154.259 21.6642 155.676C20.1313 157.061 19.0734 157.501 18.0347 157.501C16.996 157.501 15.9381 157.061 14.4052 155.676C12.8357 154.259 11.0262 152.095 8.4539 149.008L5.15035 145.044C4.52044 144.288 3.397 144.185 2.6411 144.815C1.8852 145.445 1.78307 146.569 2.41299 147.325L5.80822 151.399C8.2675 154.35 10.237 156.714 12.0171 158.321C13.8559 159.981 15.7355 161.064 18.0347 161.064C20.3338 161.064 22.2135 159.981 24.0523 158.321C25.8323 156.714 27.8018 154.35 30.2611 151.399L43.1584 135.922Z" fill="#9EA2D1"/>
<rect x="51.8516" width="145" height="50" rx="10" fill="#D5D8F5"/>
<rect x="50.8516" y="61" width="145" height="50" rx="10" fill="#D5D8F5"/>
<rect x="51.8516" y="122" width="145" height="50" rx="10" fill="#D5D8F5"/>
<rect x="59" y="8" width="43" height="34" rx="4" fill="#9EA2D1"/>
<rect x="110.852" y="7" width="78" height="13" rx="4" fill="#9EA2D1"/>
<rect x="110.852" y="28" width="78" height="13" rx="4" fill="#9EA2D1"/>
<rect x="59" y="69" width="44" height="34" rx="4" fill="#9EA2D1"/>
<rect x="110.852" y="69" width="77" height="13" rx="4" fill="#9EA2D1"/>
<rect x="110.852" y="90" width="77" height="13" rx="4" fill="#9EA2D1"/>
<rect x="59" y="130" width="43" height="34" rx="4" fill="#9EA2D1"/>
<rect x="110.852" y="130" width="78" height="13" rx="4" fill="#9EA2D1"/>
<rect x="110.852" y="151" width="78" height="13" rx="4" fill="#9EA2D1"/>
<defs>
<linearGradient id="paint0_linear_2213_93451" x1="56.6125" y1="102" x2="56.2286" y2="25.0281" gradientUnits="userSpaceOnUse">
<stop stop-color="#7E84C5" stop-opacity="0.5"/>
<stop offset="1" stop-color="#7E84C5" stop-opacity="0.16"/>
</linearGradient>
<linearGradient id="paint1_linear_2213_93451" x1="208" y1="147" x2="215.258" y2="84.1734" gradientUnits="userSpaceOnUse">
<stop stop-color="#7E84C5" stop-opacity="0.5"/>
<stop offset="1" stop-color="#7E84C5" stop-opacity="0.14"/>
</linearGradient>
<linearGradient id="paint2_linear_2213_93451" x1="190.207" y1="-16518.2" x2="242.852" y2="-16518.2" gradientUnits="userSpaceOnUse">
<stop stop-color="#7E84C5" stop-opacity="0.83"/>
<stop offset="0.984375" stop-color="#7E84C5" stop-opacity="0.14"/>
</linearGradient>
</defs>
</svg>

