<svg width="263" height="171" viewBox="0 0 263 171" fill="none" xmlns="http://www.w3.org/2000/svg">
<path d="M137 24L252 24C255.314 24 258 26.6863 258 30L258 80C258 83.3137 255.314 86 252 86L199.209 86" stroke="url(#paint0_linear_2213_93434)" stroke-width="10"/>
<path d="M146.646 23.6465C146.451 23.8417 146.451 24.1583 146.646 24.3536L149.828 27.5355C150.024 27.7308 150.34 27.7308 150.536 27.5355C150.731 27.3403 150.731 27.0237 150.536 26.8284L147.707 24L150.536 21.1716C150.731 20.9763 150.731 20.6597 150.536 20.4645C150.34 20.2692 150.024 20.2692 149.828 20.4645L146.646 23.6465ZM252 24L252 24.5L252 24ZM203.451 86.5L205.474 86.5L205.474 85.5L203.451 85.5L203.451 86.5ZM209.52 86.5L213.565 86.5L213.565 85.5L209.52 85.5L209.52 86.5ZM217.611 86.5L221.657 86.5L221.657 85.5L217.611 85.5L217.611 86.5ZM225.703 86.5L229.748 86.5L229.748 85.5L225.703 85.5L225.703 86.5ZM233.794 86.5L237.84 86.5L237.84 85.5L233.794 85.5L233.794 86.5ZM241.886 86.5L245.931 86.5L245.931 85.5L241.886 85.5L241.886 86.5ZM249.977 86.5L252 86.5L252 85.5L249.977 85.5L249.977 86.5ZM252 86.5C252.88 86.5 253.721 86.3247 254.488 86.0066L254.105 85.0828C253.457 85.3515 252.747 85.5 252 85.5L252 86.5ZM258.007 82.4882C258.325 81.7211 258.5 80.8804 258.5 80L257.5 80C257.5 80.7467 257.351 81.4574 257.083 82.1052L258.007 82.4882ZM258.5 80L258.5 77.9166L257.5 77.9166L257.5 80L258.5 80ZM258.5 73.75L258.5 69.5833L257.5 69.5833L257.5 73.75L258.5 73.75ZM258.5 65.4167L258.5 61.25L257.5 61.25L257.5 65.4167L258.5 65.4167ZM258.5 57.0833L258.5 52.9167L257.5 52.9167L257.5 57.0833L258.5 57.0833ZM258.5 48.75L258.5 44.5833L257.5 44.5833L257.5 48.75L258.5 48.75ZM258.5 40.4167L258.5 36.25L257.5 36.25L257.5 40.4167L258.5 40.4167ZM258.5 32.0833L258.5 30L257.5 30L257.5 32.0833L258.5 32.0833ZM258.5 30C258.5 29.1196 258.325 28.2788 258.007 27.5117L257.083 27.8948C257.351 28.5426 257.5 29.2533 257.5 30L258.5 30ZM254.488 23.9934C253.721 23.6753 252.88 23.5 252 23.5L252 24.5C252.747 24.5 253.457 24.6485 254.105 24.9171L254.488 23.9934ZM252 23.5L249.981 23.5L249.981 24.5L252 24.5L252 23.5ZM245.942 23.5L241.904 23.5L241.904 24.5L245.942 24.5L245.942 23.5ZM237.865 23.5L233.827 23.5L233.827 24.5L237.865 24.5L237.865 23.5ZM229.788 23.5L225.75 23.5L225.75 24.5L229.788 24.5L229.788 23.5ZM221.712 23.5L217.673 23.5L217.673 24.5L221.712 24.5L221.712 23.5ZM213.635 23.5L209.596 23.5L209.596 24.5L213.635 24.5L213.635 23.5ZM205.558 23.5L201.519 23.5L201.519 24.5L205.558 24.5L205.558 23.5ZM197.481 23.5L193.442 23.5L193.442 24.5L197.481 24.5L197.481 23.5ZM189.404 23.5L185.365 23.5L185.365 24.5L189.404 24.5L189.404 23.5ZM181.327 23.5L177.288 23.5L177.288 24.5L181.327 24.5L181.327 23.5ZM173.25 23.5L169.212 23.5L169.212 24.5L173.25 24.5L173.25 23.5ZM165.173 23.5L161.135 23.5L161.135 24.5L165.173 24.5L165.173 23.5ZM157.096 23.5L153.058 23.5L153.058 24.5L157.096 24.5L157.096 23.5ZM149.019 23.5L147 23.5L147 24.5L149.019 24.5L149.019 23.5Z" fill="#7E84C5"/>
<rect width="145" height="50" rx="10" fill="#D5D8F5"/>
<rect x="72" y="61" width="145" height="50" rx="10" fill="#D5D8F5"/>
<rect x="131" y="69" width="78" height="13" rx="4" fill="#9EA2D1"/>
<rect x="131" y="90" width="78" height="13" rx="4" fill="#9EA2D1"/>
<rect y="122" width="141" height="49" rx="10" fill="#D5D8F5"/>
<path d="M29.6335 28.176H27.1615V20.784L24.2575 22.056C24.0335 21.944 23.8415 21.792 23.6815 21.6C23.5215 21.408 23.4415 21.16 23.4415 20.856C23.4415 20.264 23.8015 19.832 24.5215 19.56L27.7135 18.24H28.2895C28.6895 18.24 29.0095 18.36 29.2495 18.6C29.5055 18.84 29.6335 19.168 29.6335 19.584V28.176ZM27.1615 26.664H29.6335V33C29.5215 33.048 29.3615 33.088 29.1535 33.12C28.9455 33.168 28.7215 33.192 28.4815 33.192C28.0335 33.192 27.6975 33.104 27.4735 32.928C27.2655 32.752 27.1615 32.456 27.1615 32.04V26.664Z" fill="#7E84C5"/>
<path d="M97.7514 81.064C97.7514 80.712 97.9354 80.384 98.3034 80.08C98.6714 79.776 99.1674 79.536 99.7914 79.36C100.415 79.184 101.119 79.096 101.903 79.096C102.975 79.096 103.895 79.28 104.663 79.648C105.431 80 106.015 80.496 106.415 81.136C106.831 81.76 107.039 82.496 107.039 83.344C107.039 84.224 106.791 85.08 106.295 85.912C105.815 86.744 105.015 87.664 103.895 88.672L100.175 92.008H106.967C107.031 92.104 107.087 92.24 107.135 92.416C107.199 92.576 107.231 92.768 107.231 92.992C107.231 93.328 107.151 93.584 106.991 93.76C106.831 93.92 106.615 94 106.343 94H97.8954C97.6874 93.856 97.5274 93.672 97.4154 93.448C97.3034 93.224 97.2474 92.976 97.2474 92.704C97.2474 92.384 97.3114 92.104 97.4394 91.864C97.5834 91.608 97.7594 91.392 97.9674 91.216L102.023 87.376C102.983 86.512 103.639 85.792 103.991 85.216C104.343 84.624 104.519 84.024 104.519 83.416C104.519 82.744 104.279 82.2 103.799 81.784C103.319 81.352 102.615 81.136 101.687 81.136C100.999 81.136 100.383 81.256 99.8394 81.496C99.2954 81.72 98.8474 81.96 98.4954 82.216C98.2874 82.104 98.1114 81.952 97.9674 81.76C97.8234 81.568 97.7514 81.336 97.7514 81.064Z" fill="#7E84C5"/>
<path d="M26.6985 140.072C28.2985 140.072 29.5705 140.416 30.5145 141.104C31.4585 141.792 31.9305 142.8 31.9305 144.128C31.9305 144.736 31.8025 145.264 31.5465 145.712C31.3065 146.144 31.0105 146.496 30.6585 146.768C30.3225 147.04 29.9945 147.224 29.6745 147.32C30.1225 147.464 30.5465 147.688 30.9465 147.992C31.3465 148.296 31.6745 148.688 31.9305 149.168C32.2025 149.648 32.3385 150.232 32.3385 150.92C32.3385 151.88 32.0985 152.68 31.6185 153.32C31.1545 153.96 30.4985 154.448 29.6505 154.784C28.8185 155.12 27.8585 155.288 26.7705 155.288C25.8265 155.288 25.0025 155.192 24.2985 155C23.6105 154.808 23.0745 154.56 22.6905 154.256C22.3065 153.952 22.1145 153.616 22.1145 153.248C22.1145 152.976 22.1865 152.744 22.3305 152.552C22.4745 152.344 22.6585 152.176 22.8825 152.048C23.2665 152.336 23.7465 152.608 24.3225 152.864C24.9145 153.12 25.6825 153.248 26.6265 153.248C27.6185 153.248 28.4105 153.04 29.0025 152.624C29.5945 152.208 29.8905 151.6 29.8905 150.8C29.8905 150.064 29.6185 149.48 29.0745 149.048C28.5465 148.616 27.7545 148.4 26.6985 148.4H24.6345C24.5705 148.304 24.5065 148.168 24.4425 147.992C24.3945 147.816 24.3705 147.624 24.3705 147.416C24.3705 147.192 24.3945 146.992 24.4425 146.816C24.5065 146.64 24.5705 146.496 24.6345 146.384H26.5785C27.6185 146.384 28.3625 146.192 28.8105 145.808C29.2585 145.424 29.4825 144.912 29.4825 144.272C29.4825 143.568 29.2185 143.032 28.6905 142.664C28.1625 142.296 27.4345 142.112 26.5065 142.112C25.7705 142.112 25.1225 142.224 24.5625 142.448C24.0025 142.656 23.5385 142.888 23.1705 143.144C22.9785 143.032 22.8105 142.88 22.6665 142.688C22.5225 142.48 22.4505 142.248 22.4505 141.992C22.4505 141.64 22.6345 141.32 23.0025 141.032C23.3865 140.744 23.8985 140.512 24.5385 140.336C25.1785 140.16 25.8985 140.072 26.6985 140.072Z" fill="#7E84C5"/>
<rect x="59" y="8" width="78" height="13" rx="4" fill="#9EA2D1"/>
<rect x="59" y="29" width="78" height="13" rx="4" fill="#9EA2D1"/>
<rect x="55" y="130" width="78" height="13" rx="4" fill="#9EA2D1"/>
<rect x="55" y="151" width="78" height="13" rx="4" fill="#9EA2D1"/>
<defs>
<linearGradient id="paint0_linear_2213_93434" x1="152" y1="21.5" x2="201.051" y2="108.742" gradientUnits="userSpaceOnUse">
<stop stop-color="#7E84C5" stop-opacity="0.51"/>
<stop offset="1" stop-color="#7E84C5" stop-opacity="0.13"/>
</linearGradient>
</defs>
</svg>

