<svg width="269" height="173" viewBox="0 0 269 173" fill="none" xmlns="http://www.w3.org/2000/svg">
<g opacity="0.7" filter="url(#filter0_d_2213_93416)">
<path d="M171.82 38.4348C171.553 38.5063 171.279 38.348 171.207 38.0813L170.043 33.7346C169.971 33.4679 170.13 33.1937 170.396 33.1222C170.663 33.0508 170.937 33.209 171.009 33.4758L172.044 37.3395L175.908 36.3042C176.174 36.2327 176.449 36.391 176.52 36.6578C176.591 36.9245 176.433 37.1987 176.166 37.2701L171.82 38.4348ZM171.257 37.7019C171.578 37.146 171.91 36.5998 172.251 36.0634L173.094 36.6001C172.761 37.1245 172.437 37.6584 172.123 38.2019L171.257 37.7019ZM174.444 32.9244C175.225 31.9035 176.046 30.9249 176.901 29.9893L177.639 30.6642C176.803 31.5783 176.002 32.5346 175.238 33.5322L174.444 32.9244ZM179.606 27.2811C180.552 26.4143 181.531 25.5936 182.54 24.82L183.148 25.6136C182.162 26.3694 181.206 27.1713 180.282 28.0182L179.606 27.2811ZM185.678 22.6258C186.758 21.9391 187.865 21.3017 188.995 20.7146L189.456 21.602C188.351 22.1757 187.27 22.7986 186.214 23.4696L185.678 22.6258ZM192.466 19.0996C193.647 18.6116 194.847 18.1754 196.064 17.7921L196.364 18.7459C195.175 19.1205 194.002 19.5468 192.848 20.0238L192.466 19.0996ZM199.762 16.8012C201.007 16.5248 202.265 16.3022 203.532 16.1346L203.663 17.1259C202.425 17.2898 201.196 17.5073 199.979 17.7775L199.762 16.8012ZM207.345 15.7977C208.617 15.741 209.895 15.7394 211.173 15.7942L211.131 16.7933C209.881 16.7398 208.633 16.7412 207.39 16.7967L207.345 15.7977ZM214.988 16.1255C216.249 16.2909 217.507 16.5121 218.759 16.7901L218.542 17.7663C217.319 17.4948 216.09 17.2786 214.858 17.117L214.988 16.1255ZM222.456 17.783C223.665 18.1653 224.864 18.6028 226.052 19.0962L225.668 20.0196C224.508 19.5374 223.335 19.11 222.154 18.7364L222.456 17.783ZM229.52 20.7181C230.084 21.012 230.644 21.3194 231.2 21.6403L230.7 22.5063C230.156 22.1926 229.609 21.8921 229.058 21.6047L229.52 20.7181ZM231.2 21.6403C231.756 21.9612 232.302 22.2925 232.838 22.6337L232.302 23.4774C231.777 23.1439 231.243 22.8201 230.7 22.5063L231.2 21.6403ZM235.977 24.8268C236.998 25.6082 237.977 26.4285 238.912 27.2842L238.238 28.0221C237.323 27.186 236.367 26.3845 235.37 25.6209L235.977 24.8268ZM241.621 29.9892C242.487 30.9346 243.308 31.9137 244.082 32.9227L243.288 33.5312C242.532 32.5453 241.73 31.5887 240.884 30.665L241.621 29.9892ZM246.276 36.0607C246.963 37.1406 247.6 38.2476 248.187 39.378L247.3 39.8389C246.726 38.7342 246.103 37.6525 245.432 36.5973L246.276 36.0607ZM249.802 42.8489C250.29 44.0296 250.726 45.2301 251.11 46.4469L250.156 46.7474C249.781 45.5582 249.355 44.3848 248.878 43.2309L249.802 42.8489ZM252.101 50.1448C252.377 51.3902 252.6 52.648 252.767 53.9145L251.776 54.0458C251.612 52.808 251.394 51.5787 251.124 50.3615L252.101 50.1448ZM253.104 57.7279C253.161 59.0004 253.162 60.2778 253.108 61.5564L252.108 61.5136C252.162 60.2643 252.161 59.016 252.105 57.7725L253.104 57.7279ZM252.776 65.371C252.611 66.6317 252.39 67.8899 252.112 69.1421L251.135 68.9254C251.407 67.702 251.623 66.4727 251.785 65.2409L252.776 65.371ZM251.119 72.8388C250.736 74.0477 250.299 75.2474 249.806 76.4345L248.882 76.0508C249.364 74.8906 249.792 73.7184 250.165 72.5372L251.119 72.8388ZM248.184 79.9033C247.89 80.4671 247.582 81.027 247.261 81.5829L246.395 81.0829C246.709 80.5394 247.01 79.992 247.297 79.441L248.184 79.9033ZM247.261 81.5829C246.941 82.1387 246.609 82.6849 246.268 83.2213L245.424 82.6846C245.758 82.1602 246.082 81.6263 246.395 81.0829L247.261 81.5829ZM244.075 86.3603C243.294 87.3812 242.473 88.3599 241.618 89.2954L240.88 88.6205C241.716 87.7064 242.517 86.7501 243.281 85.7525L244.075 86.3603ZM238.913 92.0036C237.967 92.8704 236.988 93.6911 235.979 94.4647L235.371 93.6711C236.357 92.9153 237.313 92.1134 238.237 91.2665L238.913 92.0036ZM232.841 96.659C231.761 97.3457 230.654 97.983 229.524 98.5702L229.063 97.6827C230.168 97.109 231.249 96.4861 232.304 95.8151L232.841 96.659ZM226.053 100.185C224.872 100.673 223.672 101.109 222.455 101.493L222.154 100.539C223.344 100.164 224.517 99.7379 225.671 99.261L226.053 100.185ZM218.757 102.483C217.512 102.76 216.254 102.982 214.987 103.15L214.856 102.159C216.094 101.995 217.323 101.777 218.54 101.507L218.757 102.483ZM211.174 103.487C209.901 103.544 208.624 103.545 207.345 103.491L207.388 102.491C208.637 102.545 209.886 102.543 211.129 102.488L211.174 103.487ZM203.531 103.159C202.27 102.994 201.012 102.773 199.76 102.495L199.976 101.518C201.2 101.79 202.429 102.006 203.661 102.168L203.531 103.159ZM196.063 101.502C194.854 101.119 193.654 100.682 192.467 100.189L192.851 99.2651C194.011 99.7473 195.183 100.175 196.365 100.548L196.063 101.502ZM188.998 98.5667C188.435 98.2727 187.875 97.9653 187.319 97.6444L187.819 96.7784C188.362 97.0921 188.91 97.3926 189.461 97.68L188.998 98.5667ZM187.319 97.6444C186.702 97.2884 186.097 96.9196 185.505 96.5386L186.045 95.6974C186.625 96.0698 187.216 96.4303 187.819 96.7784L187.319 97.6444ZM182.045 94.0726C180.925 93.1889 179.856 92.2577 178.841 91.2838L179.534 90.5623C180.525 91.5139 181.569 92.4237 182.665 93.2873L182.045 94.0726ZM175.924 88.1967C174.999 87.1161 174.131 85.9956 173.322 84.8401L174.141 84.2665C174.931 85.3956 175.779 86.4904 176.684 87.5461L175.924 88.1967ZM171.057 81.2461C170.359 80.01 169.724 78.7431 169.151 77.4504L170.065 77.0454C170.625 78.3086 171.246 79.5467 171.928 80.7547L171.057 81.2461ZM167.62 73.4889C167.173 72.1445 166.792 70.7793 166.476 69.3984L167.451 69.1759C167.759 70.5255 168.132 71.8597 168.569 73.1737L167.62 73.4889ZM165.732 65.217C165.551 63.8144 165.438 62.4013 165.393 60.9829L166.392 60.9514C166.436 62.3375 166.547 63.7185 166.723 65.0893L165.732 65.217ZM165.465 56.7364C165.557 55.3283 165.718 53.9201 165.949 52.5165L166.936 52.6787C166.71 54.05 166.553 55.426 166.463 56.8018L165.465 56.7364ZM166.842 48.363C167.024 47.6807 167.223 47.0006 167.439 46.3235L168.391 46.6279C168.18 47.2895 167.986 47.9539 167.808 48.6206L166.842 48.363ZM171.949 38.9178C171.416 39.0607 170.867 38.7441 170.724 38.2107L168.395 29.5173C168.252 28.9839 168.569 28.4355 169.102 28.2926C169.636 28.1497 170.184 28.4662 170.327 28.9997L172.397 36.7271L180.125 34.6566C180.658 34.5136 181.207 34.8302 181.35 35.3637C181.493 35.8971 181.176 36.4455 180.643 36.5884L171.949 38.9178ZM170.824 37.4519C171.149 36.8898 171.484 36.3375 171.829 35.7951L173.516 36.8685C173.187 37.3868 172.867 37.9146 172.556 38.4519L170.824 37.4519ZM174.047 32.6205C174.837 31.588 175.667 30.5981 176.532 29.6518L178.008 31.0017C177.182 31.9051 176.39 32.8502 175.635 33.8361L174.047 32.6205ZM179.268 26.9125C180.225 26.0358 181.215 25.2057 182.236 24.4232L183.452 26.0104C182.478 26.7574 181.533 27.5498 180.62 28.3867L179.268 26.9125ZM185.409 22.2038C186.502 21.5093 187.621 20.8646 188.765 20.2708L189.686 22.0457C188.595 22.6128 187.525 23.2284 186.483 23.8915L185.409 22.2038ZM192.275 18.6375C193.469 18.1439 194.683 17.7028 195.914 17.3152L196.515 19.2228C195.339 19.5931 194.179 20.0144 193.039 20.4858L192.275 18.6375ZM199.654 16.3131C200.913 16.0336 202.185 15.8085 203.466 15.6389L203.728 17.6216C202.505 17.7836 201.29 17.9986 200.087 18.2656L199.654 16.3131ZM207.323 15.2982C208.61 15.2408 209.902 15.2393 211.195 15.2947L211.109 17.2928C209.875 17.24 208.641 17.2414 207.412 17.2962L207.323 15.2982ZM215.053 15.6297C216.328 15.7971 217.601 16.0208 218.867 16.302L218.434 18.2544C217.225 17.9861 216.01 17.7725 214.793 17.6127L215.053 15.6297ZM222.607 17.3063C223.829 17.693 225.043 18.1354 226.243 18.6344L225.476 20.4813C224.329 20.0048 223.171 19.5823 222.004 19.2131L222.607 17.3063ZM229.752 20.2747C230.322 20.572 230.888 20.8828 231.45 21.2073L230.45 22.9393C229.913 22.6292 229.372 22.3321 228.827 22.0481L229.752 20.2747ZM231.45 21.2073C232.012 21.5318 232.564 21.8667 233.107 22.2118L232.033 23.8993C231.515 23.5696 230.987 23.2495 230.45 22.9393L231.45 21.2073ZM236.281 24.4298C237.314 25.2201 238.304 26.0497 239.25 26.9153L237.9 28.391C236.997 27.5647 236.052 26.7726 235.066 26.0179L236.281 24.4298ZM241.989 29.6513C242.866 30.6076 243.696 31.5979 244.479 32.6185L242.891 33.8354C242.144 32.861 241.352 31.9157 240.515 31.0029L241.989 29.6513ZM246.698 35.7924C247.392 36.8846 248.037 38.0042 248.631 39.1475L246.856 40.0694C246.289 38.9776 245.673 37.9084 245.01 36.8656L246.698 35.7924ZM250.264 42.6579C250.758 43.8519 251.199 45.0661 251.587 46.2967L249.679 46.8976C249.309 45.7222 248.887 44.5624 248.416 43.422L250.264 42.6579ZM252.589 50.0365C252.868 51.296 253.093 52.568 253.263 53.8489L251.28 54.1114C251.118 52.888 250.903 51.6729 250.636 50.4699L252.589 50.0365ZM253.604 57.7056C253.661 58.9926 253.662 60.2846 253.607 61.5778L251.609 61.4922C251.662 60.2575 251.66 59.0238 251.606 57.7947L253.604 57.7056ZM253.272 65.4361C253.105 66.7112 252.881 67.9839 252.6 69.2504L250.647 68.817C250.916 67.608 251.129 66.3931 251.289 65.1759L253.272 65.4361ZM251.596 72.9896C251.209 74.2123 250.766 75.4257 250.267 76.6264L248.42 75.8589C248.897 74.7123 249.319 73.5537 249.689 72.3865L251.596 72.9896ZM248.627 80.1345C248.33 80.7046 248.019 81.2708 247.694 81.8329L245.962 80.8329C246.273 80.2956 246.57 79.7545 246.854 79.2098L248.627 80.1345ZM247.694 81.8329C247.37 82.3949 247.035 82.9472 246.69 83.4896L245.002 82.4162C245.332 81.8979 245.652 81.3701 245.962 80.8329L247.694 81.8329ZM244.472 86.6642C243.682 87.6967 242.852 88.6866 241.987 89.6329L240.511 88.283C241.337 87.3797 242.129 86.4346 242.884 85.4486L244.472 86.6642ZM239.25 92.3722C238.294 93.2489 237.304 94.079 236.283 94.8615L235.066 93.2743C236.041 92.5273 236.986 91.7349 237.899 90.898L239.25 92.3722ZM233.109 97.0809C232.017 97.7754 230.898 98.4201 229.754 99.0139L228.832 97.239C229.924 96.6719 230.993 96.0563 232.036 95.3932L233.109 97.0809ZM226.244 100.647C225.05 101.141 223.836 101.582 222.605 101.97L222.004 100.062C223.18 99.6917 224.339 99.2703 225.48 98.7989L226.244 100.647ZM218.865 102.972C217.606 103.251 216.334 103.476 215.053 103.646L214.79 101.663C216.014 101.501 217.229 101.286 218.432 101.019L218.865 102.972ZM211.196 103.987C209.909 104.044 208.617 104.045 207.324 103.99L207.41 101.992C208.644 102.045 209.878 102.043 211.107 101.988L211.196 103.987ZM203.466 103.655C202.191 103.488 200.918 103.264 199.651 102.983L200.085 101.03C201.294 101.299 202.509 101.512 203.726 101.672L203.466 103.655ZM195.912 101.978C194.689 101.592 193.476 101.149 192.275 100.65L193.043 98.8034C194.189 99.28 195.348 99.7024 196.515 100.072L195.912 101.978ZM188.767 99.01C188.197 98.7127 187.631 98.4019 187.069 98.0774L188.069 96.3454C188.606 96.6556 189.147 96.9526 189.692 97.2366L188.767 99.01ZM187.069 98.0774C186.445 97.7174 185.834 97.3445 185.234 96.9592L186.316 95.2767C186.888 95.6449 187.473 96.0012 188.069 96.3454L187.069 98.0774ZM181.736 94.4652C180.602 93.5714 179.522 92.6296 178.495 91.6445L179.88 90.2016C180.86 91.142 181.892 92.0412 182.974 92.8947L181.736 94.4652ZM175.545 88.522C174.608 87.429 173.73 86.2956 172.912 85.1269L174.55 83.9798C175.332 85.0956 176.17 86.1775 177.063 87.2209L175.545 88.522ZM170.622 81.4918C169.916 80.2416 169.273 78.9603 168.694 77.653L170.522 76.8428C171.076 78.0914 171.69 79.3151 172.363 80.5089L170.622 81.4918ZM167.145 73.6465C166.694 72.2869 166.308 70.9062 165.989 69.5097L167.939 69.0646C168.243 70.3985 168.612 71.7174 169.043 73.0161L167.145 73.6465ZM165.236 65.2809C165.053 63.8624 164.938 62.4332 164.893 60.9986L166.892 60.9357C166.935 62.3056 167.045 63.6705 167.219 65.0254L165.236 65.2809ZM164.966 56.7036C165.06 55.2795 165.222 53.8551 165.456 52.4354L167.429 52.7598C167.206 54.115 167.051 55.4749 166.962 56.8346L164.966 56.7036ZM166.359 48.2342C166.542 47.544 166.744 46.8562 166.963 46.1713L168.868 46.7801C168.659 47.4339 168.467 48.0905 168.291 48.7494L166.359 48.2342Z" fill="url(#paint0_linear_2213_93416)"/>
</g>
<path d="M172 35.8828C183.979 15.134 210.2 10.0937 230.948 22.0731C251.697 34.0524 258.806 60.5838 246.827 81.3326C234.848 102.081 208.316 109.19 187.567 97.2112C169.574 86.8225 161.838 65.4899 167.914 46.4755" stroke="url(#paint1_linear_2213_93416)" stroke-width="10"/>
<path d="M211.714 78.8538C211.957 79.514 212.689 79.8523 213.349 79.6095C214.01 79.3667 214.348 78.6346 214.105 77.9743L209.168 64.5527C208.177 61.8566 207.483 59.9624 207.167 58.4841C206.858 57.0402 206.964 56.2279 207.335 55.5848C207.706 54.9416 208.357 54.4439 209.762 53.9896C211.2 53.5245 213.187 53.1779 216.018 52.6887L219.653 52.0604C220.347 51.9406 220.811 51.2815 220.692 50.5884C220.572 49.8952 219.913 49.4303 219.22 49.5501L215.483 50.1959C212.777 50.6636 210.61 51.0381 208.978 51.5657C207.293 52.1106 205.95 52.8875 205.129 54.311C204.307 55.7346 204.305 57.2853 204.676 59.0173C205.035 60.694 205.794 62.7583 206.742 65.3359L211.714 78.8538Z" fill="#7E84C5"/>
<path d="M211.714 78.8538C211.957 79.514 212.689 79.8523 213.349 79.6095C214.01 79.3667 214.348 78.6346 214.105 77.9743L209.168 64.5527C208.177 61.8566 207.483 59.9624 207.167 58.4841C206.858 57.0402 206.964 56.2279 207.335 55.5848C207.706 54.9416 208.357 54.4439 209.762 53.9896C211.2 53.5245 213.187 53.1779 216.018 52.6887L219.653 52.0604C220.347 51.9406 220.811 51.2815 220.692 50.5884C220.572 49.8952 219.913 49.4303 219.22 49.5501L215.483 50.1959C212.777 50.6636 210.61 51.0381 208.978 51.5657C207.293 52.1106 205.95 52.8875 205.129 54.311C204.307 55.7346 204.305 57.2853 204.676 59.0173C205.035 60.694 205.794 62.7583 206.742 65.3359L211.714 78.8538Z" stroke="url(#paint2_linear_2213_93416)" stroke-width="6"/>
<rect y="62" width="145" height="50" rx="10" fill="#D5D8F5"/>
<rect x="8" y="71" width="43" height="34" rx="4" fill="#9EA2D1"/>
<rect x="59" y="70" width="78" height="13" rx="4" fill="#9EA2D1"/>
<rect x="59" y="91" width="78" height="13" rx="4" fill="#9EA2D1"/>
<rect x="72" y="123" width="145" height="50" rx="10" fill="#D5D8F5"/>
<rect x="80" y="132" width="43" height="34" rx="4" fill="#9EA2D1"/>
<rect x="131" y="131" width="78" height="13" rx="4" fill="#9EA2D1"/>
<rect x="131" y="152" width="78" height="13" rx="4" fill="#9EA2D1"/>
<defs>
<filter id="filter0_d_2213_93416" x="150.893" y="15.2539" width="114.756" height="116.776" filterUnits="userSpaceOnUse" color-interpolation-filters="sRGB">
<feFlood flood-opacity="0" result="BackgroundImageFix"/>
<feColorMatrix in="SourceAlpha" type="matrix" values="0 0 0 0 0 0 0 0 0 0 0 0 0 0 0 0 0 0 127 0" result="hardAlpha"/>
<feOffset dx="-1" dy="15"/>
<feGaussianBlur stdDeviation="6.5"/>
<feComposite in2="hardAlpha" operator="out"/>
<feColorMatrix type="matrix" values="0 0 0 0 0.075 0 0 0 0 0.0855469 0 0 0 0 0.1875 0 0 0 0.3 0"/>
<feBlend mode="normal" in2="BackgroundImageFix" result="effect1_dropShadow_2213_93416"/>
<feBlend mode="normal" in="SourceGraphic" in2="effect1_dropShadow_2213_93416" result="shape"/>
</filter>
<linearGradient id="paint0_linear_2213_93416" x1="168.5" y1="28.8828" x2="191.966" y2="111.878" gradientUnits="userSpaceOnUse">
<stop stop-color="#7E84C5"/>
<stop offset="1" stop-color="#9570FE"/>
</linearGradient>
<linearGradient id="paint1_linear_2213_93416" x1="168.5" y1="38.8828" x2="247.05" y2="89.0337" gradientUnits="userSpaceOnUse">
<stop stop-color="#7E84C5" stop-opacity="0"/>
<stop offset="1" stop-color="#7E84C5" stop-opacity="0.47"/>
</linearGradient>
<linearGradient id="paint2_linear_2213_93416" x1="209.34" y1="85.45" x2="227.3" y2="53.8903" gradientUnits="userSpaceOnUse">
<stop stop-color="#7E84C5" stop-opacity="0.5"/>
<stop offset="1" stop-color="#7E84C5" stop-opacity="0.14"/>
</linearGradient>
</defs>
</svg>

